<?xml version="1.0" standalone="no"?>
<!DOCTYPE svg PUBLIC "-//W3C//DTD SVG 20010904//EN"
 "http://www.w3.org/TR/2001/REC-SVG-20010904/DTD/svg10.dtd">
<svg version="1.0" xmlns="http://www.w3.org/2000/svg"
 width="402.000000pt" height="404.000000pt" viewBox="0 0 402.000000 404.000000"
 preserveAspectRatio="xMidYMid meet">
<metadata>
Created by potrace 1.13, written by Peter Selinger 2001-2015
</metadata>
<g transform="translate(0.000000,404.000000) scale(0.100000,-0.100000)"
fill="#000" stroke="none">
<path d="M945 3120 c911 -911 920 -920 960 -920 34 0 46 7 92 52 l52 51 -59
57 c-48 46 -61 67 -75 115 -17 58 -17 61 5 138 18 62 22 92 17 148 -5 56 -3
71 9 76 21 8 44 -15 66 -65 17 -38 19 -57 13 -137 -8 -107 4 -144 61 -195 41
-35 56 -37 94 -10 16 11 42 23 59 26 17 4 34 10 36 14 3 4 -13 34 -34 66 -56
85 -81 161 -81 244 0 86 20 146 77 232 75 115 168 182 286 208 31 7 57 17 57
22 0 17 95 110 138 135 42 25 43 25 64 7 27 -25 74 -124 89 -188 10 -47 16
-55 73 -93 80 -55 187 -163 238 -240 40 -59 43 -62 106 -78 100 -25 192 -78
192 -111 0 -24 -90 -133 -128 -155 -34 -20 -40 -29 -50 -78 -18 -87 -50 -140
-129 -218 -115 -113 -246 -165 -359 -144 -70 14 -143 42 -195 78 -24 16 -49
33 -56 36 -7 5 -17 -11 -29 -45 -14 -45 -37 -73 -142 -180 l-124 -127 11 -33
c8 -24 254 -277 876 -898 l865 -865 0 1998 0 1997 -1997 0 -1998 0 920 -920z"/>
</g>
</svg>
